
  <svg width="104.25" height="48" viewBox="0 0 556 256" fill="none" xmlns="http://www.w3.org/2000/svg" xmlns:xlink="http://www.w3.org/1999/xlink" version="1.1">
    
        <g transform="translate(0, 0)">
      <svg xmlns="http://www.w3.org/2000/svg" viewBox="0 0 256 292" width="256px" height="292px">
  <defs>
    <linearGradient x1="68.1884411%" y1="17.4868311%" x2="27.8226935%" y2="89.7551419%" id="linearGradient-1">
      <stop stop-color="#41873F" offset="0%"></stop>
      <stop stop-color="#418B3D" offset="32.88%"></stop>
      <stop stop-color="#419637" offset="63.52%"></stop>
      <stop stop-color="#3FA92D" offset="93.19%"></stop>
      <stop stop-color="#3FAE2A" offset="100%"></stop>
    </linearGradient>
    <linearGradient x1="43.2765472%" y1="55.168777%" x2="159.245277%" y2="-18.3061379%" id="linearGradient-4">
      <stop stop-color="#41873F" offset="13.76%"></stop>
      <stop stop-color="#54A044" offset="40.32%"></stop>
      <stop stop-color="#66B848" offset="71.36%"></stop>
      <stop stop-color="#6CC04A" offset="90.81%"></stop>
    </linearGradient>
    <linearGradient x1="-4.38880435%" y1="49.9972065%" x2="101.499239%" y2="49.9972065%" id="linearGradient-7">
      <stop stop-color="#6CC04A" offset="9.191646%"></stop>
      <stop stop-color="#66B848" offset="28.64%"></stop>
      <stop stop-color="#54A044" offset="59.68%"></stop>
      <stop stop-color="#41873F" offset="86.24%"></stop>
    </linearGradient>
  </defs>
  <path d="M134.922587,1.83244962 C130.579003,-0.610816541 125.420997,-0.610816541 121.077412,1.83244962 L6.78685046,67.8006362 C2.44326617,70.2439024 1.66898426e-14,74.8589606 1.66898426e-14,79.745493 L1.66898426e-14,211.95334 C1.66898426e-14,216.839873 2.71474019,221.454931 6.78685046,223.898197 L121.077412,289.866385 C125.420997,292.309649 130.579003,292.309649 134.922587,289.866385 L249.213148,223.898197 C253.556733,221.454931 256,216.839873 256,211.95334 L256,79.745493 C256,74.8589606 253.28526,70.2439024 249.213148,67.8006362 L134.922587,1.83244962 L134.922587,1.83244962 Z" fill="url(#linearGradient-1)"></path>
  <path d="M249.484623,67.8006362 L134.651113,1.83244962 C133.565217,1.28950159 132.207847,0.746553555 131.121951,0.475079538 L2.44326617,220.911983 C3.52916224,222.269353 4.88653235,223.355249 6.24390243,224.169671 L121.077412,290.137857 C124.335101,292.038177 128.135737,292.581124 131.664899,291.495227 L252.470838,70.5153764 C251.656416,69.4294803 250.570518,68.6150581 249.484623,67.8006362 L249.484623,67.8006362 Z" fill="url(#linearGradient-4)"></path>
  <path d="M249.756098,223.898195 C253.013785,221.997878 255.457053,218.740191 256.542947,215.211029 L130.579003,0.203604793 C127.321315,-0.339343381 123.792153,-0.0678694115 120.805938,1.83244885 L6.78685046,67.5291613 L129.764581,291.766702 C131.393425,291.495227 133.293743,290.952279 134.922587,290.137857 L249.756098,223.898195 L249.756098,223.898195 Z" fill="url(#linearGradient-7)"></path>
</svg>


        </g>
         
        <g transform="translate(300, 0)">
               <svg xmlns="http://www.w3.org/2000/svg" viewBox="0 0 1024 1024" fill="none" width="256" height="256">
  <circle cx="512" cy="512" r="512" fill="#13aa52"></circle>
  <path d="M648.86 449.44c-32.34-142.73-108.77-189.66-117-207.59-9-12.65-18.12-35.15-18.12-35.15-.15-.38-.39-1.05-.67-1.7-.93 12.65-1.41 17.53-13.37 30.29-18.52 14.48-113.54 94.21-121.27 256.37-7.21 151.24 109.25 241.36 125 252.85l1.79 1.27v-.11c.1.76 5 36 8.44 73.34H526a726.68 726.68 0 0 1 13-78.53l1-.65a204.48 204.48 0 0 0 20.11-16.45l.72-.65c33.48-30.93 93.67-102.47 93.08-216.53a347.07 347.07 0 0 0-5.05-56.76zM512.35 659.12s0-212.12 7-212.08c5.46 0 12.53 273.61 12.53 273.61-9.72-1.17-19.53-45.03-19.53-61.53z" fill="#fff"></path>
</svg>
        </g>
        
  </svg>
  